<svg xmlns="http://www.w3.org/2000/svg" viewBox="0 0 269.73 269.73">

<defs><style>.cls-1{fill:#fff;}.cls-2,.cls-3,.cls-6{fill:none;stroke-width:8.43px;}.cls-2,.cls-3{stroke:#535859;}.cls-2,.cls-6{stroke-miterlimit:10;}.cls-3{stroke-linejoin:round;}.cls-4{fill:#acf0f2;}.cls-5{fill:#ff6680;}.cls-6{stroke:#80aeff;}</style></defs><g id="Capa_2" data-name="Capa 2"><g id="Layer_1" data-name="Layer 1"><path class="cls-1" d="M96.93,269.73V219.15c0-42.14-33.71-77.55-33.71-126.43a88.51,88.51,0,1,1,177,0l25.28,63.22H240.23v37.93a25.29,25.29,0,0,1-25.29,25.28H189.65v50.58"/><line class="cls-2" x1="189.65" y1="219.15" x2="177.01" y2="219.15"/><path class="cls-3" d="M101.15,20.08A88.51,88.51,0,0,1,240.23,92.72l25.28,63.22H240.23v37.93a25.29,25.29,0,0,1-25.29,25.28H189.65v50.58"/><path class="cls-3" d="M96.93,269.73V219.15c0-13.08-3.25-25.52-7.73-37.92"/><polygon class="cls-4" points="147.51 155.94 88.5 155.94 75.86 164.37 63.22 155.94 4.21 155.94 4.21 37.93 63.22 37.93 75.86 46.36 88.5 37.93 147.51 37.93 147.51 155.94"/><polygon class="cls-3" points="147.51 155.94 88.5 155.94 75.86 164.37 63.22 155.94 4.21 155.94 4.21 37.93 63.22 37.93 75.86 46.36 88.5 37.93 147.51 37.93 147.51 155.94"/><line class="cls-3" x1="75.86" y1="46.36" x2="75.86" y2="164.37"/><line class="cls-3" x1="16.86" y1="96.93" x2="63.22" y2="96.93"/><line class="cls-3" x1="16.86" y1="80.08" x2="63.22" y2="80.08"/><line class="cls-3" x1="16.86" y1="63.22" x2="63.22" y2="63.22"/><line class="cls-3" x1="16.86" y1="113.79" x2="63.22" y2="113.79"/><line class="cls-3" x1="16.86" y1="130.65" x2="63.22" y2="130.65"/><line class="cls-3" x1="88.5" y1="113.79" x2="134.86" y2="113.79"/><line class="cls-3" x1="88.5" y1="130.65" x2="134.86" y2="130.65"/><circle class="cls-5" cx="111.72" cy="75.42" r="22.79"/><polygon class="cls-1" points="121.49 72.17 114.97 72.17 114.97 65.65 108.46 65.65 108.46 72.17 101.95 72.17 101.95 78.68 108.46 78.68 108.46 85.19 114.97 85.19 114.97 78.68 121.49 78.68 121.49 72.17"/><line class="cls-6" x1="160.15" y1="80.08" x2="168.58" y2="80.08"/><line class="cls-6" x1="177.01" y1="80.08" x2="185.44" y2="80.08"/><line class="cls-6" x1="160.15" y1="96.93" x2="168.58" y2="96.93"/><line class="cls-6" x1="177.01" y1="96.93" x2="185.44" y2="96.93"/><line class="cls-6" x1="193.87" y1="96.93" x2="202.3" y2="96.93"/><line class="cls-6" x1="160.15" y1="113.79" x2="168.58" y2="113.79"/><line class="cls-6" x1="177.01" y1="113.79" x2="185.44" y2="113.79"/><line class="cls-6" x1="160.15" y1="63.22" x2="168.58" y2="63.22"/><line class="cls-6" x1="160.15" y1="130.65" x2="168.58" y2="130.65"/></g></g>

</svg>