<svg aria-hidden="true" style="position: absolute; width: 0; height: 0; overflow: hidden;" version="1.1" xmlns="http://www.w3.org/2000/svg" xmlns:xlink="http://www.w3.org/1999/xlink">
  <defs>


    <symbol id="icon-diarie" viewBox="0 0 56.47 89.4">
      <title>Diarie book</title>
      <g id="Layer_1" data-name="Layer 1"><path class="cls-1" d="M10.59,67.28H49.41a7.06,7.06,0,0,0,7.06-7.06V7.06A7.06,7.06,0,0,0,49.41,0H10.59A10.59,10.59,0,0,0,0,10.59V74.34A10.59,10.59,0,0,0,10.59,84.92h5.29a.44.44,0,0,1,.44.45v.84a3.18,3.18,0,0,0,1.21,2.55,3.07,3.07,0,0,0,3.26.31l1.8-.9a1.82,1.82,0,0,1,1.58,0l1.8.9a3.08,3.08,0,0,0,1.38.33,3.13,3.13,0,0,0,1.82-.59,3.19,3.19,0,0,0,1.27-2.61v-.83a.45.45,0,0,1,.44-.45H50.29a6.18,6.18,0,0,0,6.18-6.17V70.44a1.81,1.81,0,0,0-1.59-1.83,1.77,1.77,0,0,0-1.94,1.76v8.38a2.65,2.65,0,0,1-2.65,2.65H30.88a.45.45,0,0,1-.44-.45V76.54a.44.44,0,0,1,.44-.44H46.69a1.81,1.81,0,0,0,1.83-1.59,1.77,1.77,0,0,0-1.76-1.94H10.66a1.82,1.82,0,0,0-1.83,1.59,1.77,1.77,0,0,0,1.76,1.94h5.29a.44.44,0,0,1,.44.44V81a.44.44,0,0,1-.44.45H10.79a7.2,7.2,0,0,1-7.25-6.71A7.06,7.06,0,0,1,10.59,67.28Zm16.32,9.26v8.34a.44.44,0,0,1-.64.4L25.75,85a5.29,5.29,0,0,0-2.37-.56A5.36,5.36,0,0,0,21,85l-.52.26a.44.44,0,0,1-.64-.4V76.54a.44.44,0,0,1,.44-.44h6.18A.44.44,0,0,1,26.91,76.54ZM3.53,10.59a7.06,7.06,0,0,1,4.7-6.65.44.44,0,0,1,.59.42V58.82a1.82,1.82,0,0,0,1.59,1.83,1.76,1.76,0,0,0,1.94-1.75V4.41a.88.88,0,0,1,.89-.88H49.41a3.53,3.53,0,0,1,3.53,3.53V60.22a3.53,3.53,0,0,1-3.53,3.53H10.59a10.54,10.54,0,0,0-6.35,2.12.44.44,0,0,1-.71-.35Z"/><path class="cls-1" d="M19.41,23.16H45.88a1.77,1.77,0,1,0,0-3.53H19.41a1.77,1.77,0,0,0,0,3.53Z"/><path class="cls-1" d="M41.47,28.46H23.82a1.76,1.76,0,0,0,0,3.52H41.47a1.76,1.76,0,0,0,0-3.52Z"/></g>
    </symbol>

    <symbol id="icon-return" viewBox="0 0 94.1 85.01">
      <title>Home icon</title>
      <g id="Capa_2" data-name="Capa 2"><g id="Layer_1" data-name="Layer 1"><path class="cls-1" d="M91.67,44.11l-14.59-14V8.26H62.94v8.22L48.27,2.38a1.76,1.76,0,0,0-2.45,0L2.42,44.11a1.77,1.77,0,0,0,0,2.52l2.83,2.83a1.77,1.77,0,0,0,2.44.06L45.86,14.65a1.76,1.76,0,0,1,2.38,0L86.43,49.52a1.77,1.77,0,0,0,2.44-.06l2.83-2.83A1.76,1.76,0,0,0,91.67,44.11Z"/><path class="cls-1" d="M48.24,14.65a1.76,1.76,0,0,0-2.38,0L11.72,45.82V83.13H82.37V45.82Z"/></g></g>
    </symbol>

    <symbol id="icon-disorder" viewBox="0 0 89.89 93.52">
      <title>Disorder icon</title>
      <defs>
      <style>
      .cls-1{stroke-linecap:round;stroke-linejoin:round;}
      </style>
      </defs>    
      <g id="Capa_2" data-name="Capa 2"><g id="Layer_1" data-name="Layer 1"><path class="cls-1" d="M36.37,1.87a8.54,8.54,0,0,0-6.2,2.67l-.7.53a9.9,9.9,0,0,0-2.57-.35,9.54,9.54,0,0,0-9.54,9.54,7.43,7.43,0,0,0-5.16,6.85,9.33,9.33,0,0,0,.38,2.65A11.66,11.66,0,0,0,6.22,37.65,12.68,12.68,0,0,0,6.63,57a11.44,11.44,0,0,0,5.16,17.29c0,.26,0,.52,0,.79A11.44,11.44,0,0,0,22.3,86.44a12.49,12.49,0,0,0,22.64-7.3V10.44A8.57,8.57,0,0,0,36.37,1.87Z"/><path class="cls-1" d="M17.3,14.92a.09.09,0,0,0,.09.08h0a.08.08,0,0,0,.08-.1v-.11a4.58,4.58,0,0,1,0-.53A9.44,9.44,0,0,1,31.53,6a.09.09,0,0,0,.12,0,.1.1,0,0,0,0-.13,9.65,9.65,0,0,0-14.36,8.4c0,.19,0,.37,0,.55Z"/><path class="cls-1" d="M11.66,75a.09.09,0,0,0,.09.09.1.1,0,0,0,.1-.09A11.25,11.25,0,0,1,16.36,66a.11.11,0,0,0,0-.14.09.09,0,0,0-.13,0A11.44,11.44,0,0,0,11.66,75Z"/><path class="cls-1" d="M25.83,26.18a.1.1,0,0,0,0-.14A11.82,11.82,0,0,0,5.66,34.4a.09.09,0,1,0,.18,0A11.63,11.63,0,0,1,25.7,26.18.11.11,0,0,0,25.83,26.18Z"/><path class="cls-1" d="M16.05,52.14a.09.09,0,0,0-.09-.09A11.56,11.56,0,0,0,4.41,63.59a.09.09,0,0,0,.1.09.09.09,0,0,0,.09-.09A11.36,11.36,0,0,1,16,52.24.1.1,0,0,0,16.05,52.14Z"/><path class="cls-1" d="M24.47,42c.16.11.34.2.5.3A7,7,0,0,0,26.61,52h.06a.08.08,0,0,0,.07,0,.11.11,0,0,0,0-.14,6.78,6.78,0,0,1-1.59-9.42,9,9,0,0,0,4.6,1.29,9.48,9.48,0,0,0,1.5-.12,9,9,0,0,0,5.89-3.67.09.09,0,0,0,0-.13.09.09,0,0,0-.13,0,8.88,8.88,0,0,1-12.38,2.06,8.9,8.9,0,0,1-3.71-7.45.09.09,0,0,0-.09-.09s-.09,0-.09.09A9.05,9.05,0,0,0,24.47,42Z"/><path class="cls-1" d="M25.86,14.2a.11.11,0,0,0-.12-.06.09.09,0,0,0-.07.11A8.62,8.62,0,0,0,34,20.68a8.9,8.9,0,0,0,2.22-.29.08.08,0,0,0,.06-.11.09.09,0,0,0-.11-.07,8.44,8.44,0,0,1-10.31-6Z"/><path class="cls-1" d="M31.61,75.93A8.13,8.13,0,0,1,29.35,63.6a.1.1,0,0,0,0-.14.09.09,0,0,0-.13,0,8.31,8.31,0,0,0,2.31,12.61,8.27,8.27,0,0,0,6.33.74.09.09,0,0,0,.06-.11.1.1,0,0,0-.12-.07A8,8,0,0,1,31.61,75.93Z"/><path class="cls-1" d="M25.76,77.31h-.14a6.13,6.13,0,0,1-4.35-1.91.09.09,0,0,0-.13,0,.09.09,0,0,0,0,.13,6.41,6.41,0,0,0,4.49,2h.14a6.36,6.36,0,0,0,4.42-1.78.09.09,0,0,0,0-.13.09.09,0,0,0-.13,0A6.15,6.15,0,0,1,25.76,77.31Z"/><path class="cls-1" d="M36.05,58.7a.09.09,0,0,0-.1.09.1.1,0,0,0,.1.1,8.81,8.81,0,0,1,8.8,8.8.09.09,0,0,0,.09.09.09.09,0,0,0,.1-.09A9,9,0,0,0,36.05,58.7Z"/><path class="cls-1" d="M33.48,29.24a.1.1,0,0,0,.1.1A11.28,11.28,0,0,1,44.85,40.61a.1.1,0,0,0,.09.1.1.1,0,0,0,.1-.1A11.47,11.47,0,0,0,33.58,29.15.1.1,0,0,0,33.48,29.24Z"/><path class="cls-1" d="M10.26,35.29a.09.09,0,0,0,.06-.12.11.11,0,0,0-.12-.06,12.89,12.89,0,0,0-8.33,12,.09.09,0,0,0,.09.09.09.09,0,0,0,.1-.09A12.67,12.67,0,0,1,10.26,35.29Z"/><path class="cls-1" d="M53.51,1.87a8.54,8.54,0,0,1,6.21,2.67l.7.53A9.9,9.9,0,0,1,63,4.72a9.54,9.54,0,0,1,9.54,9.54,7.43,7.43,0,0,1,5.16,6.85,9.7,9.7,0,0,1-.38,2.65,11.66,11.66,0,0,1,6.36,13.89A12.68,12.68,0,0,1,83.26,57,11.44,11.44,0,0,1,78.1,74.25c0,.26,0,.52,0,.79a11.44,11.44,0,0,1-10.55,11.4,12.5,12.5,0,0,1-22.65-7.3V10.44A8.57,8.57,0,0,1,53.51,1.87Z"/><path class="cls-1" d="M73.64,65.83a.09.09,0,0,0-.13,0,.11.11,0,0,0,0,.14A11.25,11.25,0,0,1,78,75a.1.1,0,0,0,.1.09.09.09,0,0,0,.09-.09A11.44,11.44,0,0,0,73.64,65.83Z"/><path class="cls-1" d="M84.05,34.4a.09.09,0,0,0,.18,0A11.82,11.82,0,0,0,64.06,26a.1.1,0,0,0,0,.14.1.1,0,0,0,.13,0A11.63,11.63,0,0,1,84.05,34.4Z"/><path class="cls-1" d="M73.93,52.05a.09.09,0,0,0-.09.09.1.1,0,0,0,.09.1A11.36,11.36,0,0,1,85.29,63.59a.09.09,0,0,0,.09.09.1.1,0,0,0,.1-.09A11.56,11.56,0,0,0,73.93,52.05Z"/><path class="cls-1" d="M65.14,37.57a9,9,0,0,0-3.37,5.21,6.78,6.78,0,0,1-5.7-7.7A.1.1,0,0,0,56,35c-.07,0-.1,0-.11.08A7,7,0,0,0,61.72,43c0,.19-.11.37-.14.56a9.06,9.06,0,0,0,2.84,8,.07.07,0,0,0,.06,0,.09.09,0,0,0,.07,0,.09.09,0,0,0,0-.13,8.87,8.87,0,0,1,7.3-15.32A.1.1,0,0,0,72,36a.1.1,0,0,0-.08-.11A9.11,9.11,0,0,0,65.14,37.57Z"/><path class="cls-1" d="M64.69,15.76a.09.09,0,0,0,.12,0,.08.08,0,0,0,0-.12A8.63,8.63,0,0,0,53,18.81a.08.08,0,0,0,0,.12h.05a.09.09,0,0,0,.08,0A8.45,8.45,0,0,1,64.69,15.76Z"/><path class="cls-1" d="M54.34,65.81a.09.09,0,0,0,0,.18,6.73,6.73,0,0,1,3.73,12.32.09.09,0,0,0,0,.13.09.09,0,0,0,.08,0h.05a6.92,6.92,0,0,0-3.83-12.66Z"/><path class="cls-1" d="M66.21,67.09a.11.11,0,0,0-.08.11,5.14,5.14,0,0,1-4.58,5.63.1.1,0,0,0-.08.11.09.09,0,0,0,.09.08h0a5.33,5.33,0,0,0,4.75-5.84A.12.12,0,0,0,66.21,67.09Z"/><path class="cls-1" d="M44.85,63.24a.1.1,0,0,0,.09.1.1.1,0,0,0,.1-.1,7,7,0,0,1,7-7,.09.09,0,0,0,0-.18A7.22,7.22,0,0,0,44.85,63.24Z"/><path class="cls-1" d="M44.85,33.6a.09.09,0,0,0,.09.09.09.09,0,0,0,.1-.09,7,7,0,0,1,7-7,.1.1,0,0,0,.09-.1.09.09,0,0,0-.09-.09A7.23,7.23,0,0,0,44.85,33.6Z"/><path class="cls-1" d="M79.69,35.11a.1.1,0,0,0-.12.06.09.09,0,0,0,.06.12,12.69,12.69,0,0,1,8.2,11.83.1.1,0,0,0,.1.09.09.09,0,0,0,.09-.09A12.89,12.89,0,0,0,79.69,35.11Z"/><path class="cls-1" d="M72.5,15h0a.09.09,0,0,1-.09-.1v-.11c0-.17,0-.35,0-.53A9.44,9.44,0,0,0,58.36,6a.09.09,0,0,1-.12,0,.1.1,0,0,1,0-.13,9.64,9.64,0,0,1,14.35,8.4c0,.19,0,.37,0,.55v.11A.09.09,0,0,1,72.5,15Z"/></g></g>
    </symbol>

    <symbol id="icon-medication" viewBox="0 0 82.39 93.52">
      <title>Medication icon</title>
      <defs>
      <style>
      .cls-1{stroke-linecap:round;stroke-linejoin:round;stroke-width:3.74px;}
      .cls-2{clip-path:url(#clip-path);}
      </style>  
      <clipPath id="clip-path" transform="translate(0.09)"><path class="cls-1" d="M35.54,81.29A10.39,10.39,0,0,1,45.89,70.93H58V33.67a7.51,7.51,0,0,0-7.48-7.49V18.8H58v-.19H54.24V1.87H5.61V18.61H1.87v.19H9.35v7.38a7.51,7.51,0,0,0-7.48,7.49V84.16a7.51,7.51,0,0,0,7.48,7.49H45.89A10.39,10.39,0,0,1,35.54,81.29Z"/></clipPath></defs>
      
      <g id="Capa_2" data-name="Capa 2"><g id="Layer_1" data-name="Layer 1"><g class="cls-2"><path class="cls-1" d="M50.5,26.18V18.7H9.35v7.48a7.51,7.51,0,0,0-7.48,7.49V84.16a7.51,7.51,0,0,0,7.48,7.49H50.5A7.51,7.51,0,0,0,58,84.16V33.67A7.51,7.51,0,0,0,50.5,26.18Z" transform="translate(0.09)"/><rect class="cls-1" x="5.7" y="1.87" width="48.63" height="16.83"/><polygon class="cls-1" points="1.87 18.89 1.87 18.61 58.17 18.52 58.17 18.89 1.87 18.89"/><rect class="cls-1" x="1.96" y="42.08" width="56.11" height="33.67"/><polygon class="cls-1" points="37.5 58.82 30.11 58.82 30.11 51.43 29.93 51.43 29.93 58.82 22.54 58.82 22.54 59.01 29.93 59.01 29.93 66.4 30.11 66.4 30.11 59.01 37.5 59.01 37.5 58.82"/></g><path class="cls-1" d="M35.54,81.29A10.39,10.39,0,0,1,45.89,70.93H58V33.67a7.51,7.51,0,0,0-7.48-7.49V18.8H58v-.19H54.24V1.87H5.61V18.61H1.87v.19H9.35v7.38a7.51,7.51,0,0,0-7.48,7.49V84.16a7.51,7.51,0,0,0,7.48,7.49H45.89A10.39,10.39,0,0,1,35.54,81.29Z" transform="translate(0.09)"/><path class="cls-1" d="M45.89,70.93a10.36,10.36,0,0,0,0,20.72H58V70.93Z" transform="translate(0.09)"/><path class="cls-1" d="M70.07,70.93H58V91.65H70.07a10.36,10.36,0,0,0,0-20.72Z" transform="translate(0.09)"/><path class="cls-1" d="M73,81.29h-.19a2.83,2.83,0,0,0-2.78-2.79v-.18A3,3,0,0,1,73,81.29Z" transform="translate(0.09)"/></g></g>
    </symbol>

    <symbol id="icon-treatment" viewBox="0 0 71.94 92.45">
      <title>Treatment icon</title>
      <g id="Capa_2" data-name="Capa 2"><g id="Layer_1" data-name="Layer 1"><rect class="cls-1" x="1.78" y="12.04" width="68.38" height="78.64" rx="3.85"/><path class="cls-1" d="M42.72,9.45a5.85,5.85,0,0,0,.09-.83,6.84,6.84,0,0,0-13.68,0,7.77,7.77,0,0,0,.08.83c-6.08,1.57-10.34,5.2-10.34,9.42H53.06C53.06,14.65,48.8,11,42.72,9.45Z"/><rect class="cls-1" x="12.04" y="49.79" width="8.55" height="8.55"/><rect class="cls-1" x="12.04" y="68.59" width="8.55" height="8.55"/><rect class="cls-1" x="30.84" y="53.97" width="29.06" height="0.18"/><rect class="cls-1" x="30.84" y="72.78" width="29.06" height="0.18"/><polygon class="cls-1" points="14.88 37.98 12.1 35.19 11.97 35.32 14.88 38.23 20.64 32.47 20.52 32.34 14.88 37.98"/><rect class="cls-1" x="30.84" y="35.17" width="29.06" height="0.18"/></g></g>
    </symbol>

    <symbol id="icon-health" viewBox="0 0 92.62 90.3">
      <title>Health icon</title>
      <g id="Capa_2" data-name="Capa 2"><g id="Layer_1" data-name="Layer 1"><path class="cls-1" d="M38.45,73.81a.9.9,0,0,1-.24,0,.85.85,0,0,1-.55-.42,1,1,0,0,1-.09-.7.94.94,0,0,1,.89-.66,1.09,1.09,0,0,1,.25,0,.91.91,0,0,1-.26,1.78ZM29,69.09a1,1,0,0,1-.57-.19.9.9,0,0,1-.16-1.25.91.91,0,0,1,.72-.36.88.88,0,0,1,.54.18.9.9,0,0,1,.35.58.94.94,0,0,1-.18.7A.9.9,0,0,1,29,69.09Zm-7.16-7.83a.91.91,0,0,1-.76-.41L21,60.73a.91.91,0,0,1,.36-1.13.89.89,0,0,1,.47-.14.92.92,0,0,1,.77.44.87.87,0,0,1,.11.67.93.93,0,0,1-.41.57A.89.89,0,0,1,21.81,61.26ZM18,51.4a.9.9,0,0,1-.88-.74.92.92,0,0,1,.73-1.06h0a.93.93,0,0,1,1,.73.89.89,0,0,1-.71,1.05Zm57.19-5.35a.9.9,0,0,1-.9-.89,1,1,0,0,1,.9-1,.91.91,0,0,1,.9.9A.94.94,0,0,1,75.15,46.05Zm-2-10.53a.93.93,0,0,1-.85-.58.92.92,0,0,1,0-.67.89.89,0,0,1,.5-.47.93.93,0,0,1,.35-.08.89.89,0,0,1,.79.48l0,.1A.91.91,0,0,1,74,35a.87.87,0,0,1-.49.48A1.21,1.21,0,0,1,73.16,35.52Zm-5.6-9a.86.86,0,0,1-.67-.3.89.89,0,0,1-.24-.65.88.88,0,0,1,.29-.63.9.9,0,0,1,.61-.23.85.85,0,0,1,.66.29.89.89,0,0,1,0,1.27A.85.85,0,0,1,67.56,26.55Zm-8.49-6.36a.74.74,0,0,1-.36-.09.93.93,0,0,1-.49-.53.9.9,0,0,1,.05-.67.89.89,0,0,1,.8-.51.9.9,0,0,1,.4.09.91.91,0,0,1,.42,1.21A.92.92,0,0,1,59.07,20.19ZM48.63,17.32a.91.91,0,0,1-.65-1,.88.88,0,0,1,.88-.82.93.93,0,0,1,.92,1,.91.91,0,0,1-.89.82Z"/><path class="cls-1" d="M55.28,88.5H38.61a4.46,4.46,0,1,1,0-8.91H51.07c-1.22-1.36-1.63-3.73.13-6.14,1.46-2,11.18-13.83,13.75-16.4,1.64-1.65,6.43-5.48,15.33-5.48h.09V68.8h-.09a5.73,5.73,0,0,0-4,1.68l-11.1,14A13.25,13.25,0,0,1,55.28,88.5ZM38.61,79.77a4.28,4.28,0,1,0,0,8.55H55.28a13.1,13.1,0,0,0,9.72-4l11.1-14a5.87,5.87,0,0,1,4.09-1.74V51.75c-8.77,0-13.49,3.8-15.12,5.43-2.56,2.56-12.26,14.39-13.72,16.38-1.28,1.74-1.78,4.29,0,6a4.29,4.29,0,0,0,6,0l8-8,.12.12-8.05,8a4.47,4.47,0,0,1-6.27,0Z"/><path class="cls-1" d="M90.82,48.75H83.19a2.92,2.92,0,0,0-2.91,2.91v17a2.91,2.91,0,0,0,2.91,2.91h7.63Z"/><path class="cls-1" d="M12.33,38.72h-.09V21.5h.09a5.7,5.7,0,0,0,4-1.68l11.11-14a13.28,13.28,0,0,1,9.84-4H54a4.46,4.46,0,0,1,0,8.91H41.55c1.22,1.36,1.63,3.73-.14,6.13-1.46,2-11.17,13.84-13.74,16.41C26,34.9,21.23,38.72,12.33,38.72Zm.09-17V38.54c8.78,0,13.5-3.79,15.12-5.42,2.57-2.56,12.27-14.39,13.73-16.38,1.28-1.74,1.77-4.29,0-6.06a4.31,4.31,0,0,0-6.05,0l-8,8.05-.12-.12,8.05-8a4.47,4.47,0,0,1,6.27,0H54A4.28,4.28,0,0,0,54,2H37.33a13.1,13.1,0,0,0-9.71,4l-11.1,14A5.91,5.91,0,0,1,12.42,21.68Z"/><path class="cls-1" d="M1.8,41.54H9.42a2.9,2.9,0,0,0,2.91-2.9v-17a2.91,2.91,0,0,0-2.91-2.91H1.8Z"/></g></g>
    </symbol>

    <symbol id="icon-title" viewBox="0 0 269.73 269.73">
      <title>Patien Icon</title>
      <defs><style>.cls-1{fill:#fff;}.cls-2,.cls-3,.cls-6{fill:none;stroke-width:8.43px;}.cls-2,.cls-3{stroke:#535859;}.cls-2,.cls-6{stroke-miterlimit:10;}.cls-3{stroke-linejoin:round;}.cls-4{fill:#acf0f2;}.cls-5{fill:#ff6680;}.cls-6{stroke:#80aeff;}</style></defs><g id="Capa_2" data-name="Capa 2"><g id="Layer_1" data-name="Layer 1"><path class="cls-1" d="M96.93,269.73V219.15c0-42.14-33.71-77.55-33.71-126.43a88.51,88.51,0,1,1,177,0l25.28,63.22H240.23v37.93a25.29,25.29,0,0,1-25.29,25.28H189.65v50.58"/><line class="cls-2" x1="189.65" y1="219.15" x2="177.01" y2="219.15"/><path class="cls-3" d="M101.15,20.08A88.51,88.51,0,0,1,240.23,92.72l25.28,63.22H240.23v37.93a25.29,25.29,0,0,1-25.29,25.28H189.65v50.58"/><path class="cls-3" d="M96.93,269.73V219.15c0-13.08-3.25-25.52-7.73-37.92"/><polygon class="cls-4" points="147.51 155.94 88.5 155.94 75.86 164.37 63.22 155.94 4.21 155.94 4.21 37.93 63.22 37.93 75.86 46.36 88.5 37.93 147.51 37.93 147.51 155.94"/><polygon class="cls-3" points="147.51 155.94 88.5 155.94 75.86 164.37 63.22 155.94 4.21 155.94 4.21 37.93 63.22 37.93 75.86 46.36 88.5 37.93 147.51 37.93 147.51 155.94"/><line class="cls-3" x1="75.86" y1="46.36" x2="75.86" y2="164.37"/><line class="cls-3" x1="16.86" y1="96.93" x2="63.22" y2="96.93"/><line class="cls-3" x1="16.86" y1="80.08" x2="63.22" y2="80.08"/><line class="cls-3" x1="16.86" y1="63.22" x2="63.22" y2="63.22"/><line class="cls-3" x1="16.86" y1="113.79" x2="63.22" y2="113.79"/><line class="cls-3" x1="16.86" y1="130.65" x2="63.22" y2="130.65"/><line class="cls-3" x1="88.5" y1="113.79" x2="134.86" y2="113.79"/><line class="cls-3" x1="88.5" y1="130.65" x2="134.86" y2="130.65"/><circle class="cls-5" cx="111.72" cy="75.42" r="22.79"/><polygon class="cls-1" points="121.49 72.17 114.97 72.17 114.97 65.65 108.46 65.65 108.46 72.17 101.95 72.17 101.95 78.68 108.46 78.68 108.46 85.19 114.97 85.19 114.97 78.68 121.49 78.68 121.49 72.17"/><line class="cls-6" x1="160.15" y1="80.08" x2="168.58" y2="80.08"/><line class="cls-6" x1="177.01" y1="80.08" x2="185.44" y2="80.08"/><line class="cls-6" x1="160.15" y1="96.93" x2="168.58" y2="96.93"/><line class="cls-6" x1="177.01" y1="96.93" x2="185.44" y2="96.93"/><line class="cls-6" x1="193.87" y1="96.93" x2="202.3" y2="96.93"/><line class="cls-6" x1="160.15" y1="113.79" x2="168.58" y2="113.79"/><line class="cls-6" x1="177.01" y1="113.79" x2="185.44" y2="113.79"/><line class="cls-6" x1="160.15" y1="63.22" x2="168.58" y2="63.22"/><line class="cls-6" x1="160.15" y1="130.65" x2="168.58" y2="130.65"/></g></g>
    </symbol>


  </defs>




</svg>
