<svg xmlns="http://www.w3.org/2000/svg" viewBox="0 0 92.62 90.3"><defs><style>.cls-1{fill:none;stroke:#000;stroke-linecap:round;stroke-linejoin:round;stroke-width:3.6px;}</style></defs><g id="Capa_2" data-name="Capa 2"><g id="Layer_1" data-name="Layer 1"><path class="cls-1" d="M38.45,73.81a.9.9,0,0,1-.24,0,.85.85,0,0,1-.55-.42,1,1,0,0,1-.09-.7.94.94,0,0,1,.89-.66,1.09,1.09,0,0,1,.25,0,.91.91,0,0,1-.26,1.78ZM29,69.09a1,1,0,0,1-.57-.19.9.9,0,0,1-.16-1.25.91.91,0,0,1,.72-.36.88.88,0,0,1,.54.18.9.9,0,0,1,.35.58.94.94,0,0,1-.18.7A.9.9,0,0,1,29,69.09Zm-7.16-7.83a.91.91,0,0,1-.76-.41L21,60.73a.91.91,0,0,1,.36-1.13.89.89,0,0,1,.47-.14.92.92,0,0,1,.77.44.87.87,0,0,1,.11.67.93.93,0,0,1-.41.57A.89.89,0,0,1,21.81,61.26ZM18,51.4a.9.9,0,0,1-.88-.74.92.92,0,0,1,.73-1.06h0a.93.93,0,0,1,1,.73.89.89,0,0,1-.71,1.05Zm57.19-5.35a.9.9,0,0,1-.9-.89,1,1,0,0,1,.9-1,.91.91,0,0,1,.9.9A.94.94,0,0,1,75.15,46.05Zm-2-10.53a.93.93,0,0,1-.85-.58.92.92,0,0,1,0-.67.89.89,0,0,1,.5-.47.93.93,0,0,1,.35-.08.89.89,0,0,1,.79.48l0,.1A.91.91,0,0,1,74,35a.87.87,0,0,1-.49.48A1.21,1.21,0,0,1,73.16,35.52Zm-5.6-9a.86.86,0,0,1-.67-.3.89.89,0,0,1-.24-.65.88.88,0,0,1,.29-.63.9.9,0,0,1,.61-.23.85.85,0,0,1,.66.29.89.89,0,0,1,0,1.27A.85.85,0,0,1,67.56,26.55Zm-8.49-6.36a.74.74,0,0,1-.36-.09.93.93,0,0,1-.49-.53.9.9,0,0,1,.05-.67.89.89,0,0,1,.8-.51.9.9,0,0,1,.4.09.91.91,0,0,1,.42,1.21A.92.92,0,0,1,59.07,20.19ZM48.63,17.32a.91.91,0,0,1-.65-1,.88.88,0,0,1,.88-.82.93.93,0,0,1,.92,1,.91.91,0,0,1-.89.82Z"/><path class="cls-1" d="M55.28,88.5H38.61a4.46,4.46,0,1,1,0-8.91H51.07c-1.22-1.36-1.63-3.73.13-6.14,1.46-2,11.18-13.83,13.75-16.4,1.64-1.65,6.43-5.48,15.33-5.48h.09V68.8h-.09a5.73,5.73,0,0,0-4,1.68l-11.1,14A13.25,13.25,0,0,1,55.28,88.5ZM38.61,79.77a4.28,4.28,0,1,0,0,8.55H55.28a13.1,13.1,0,0,0,9.72-4l11.1-14a5.87,5.87,0,0,1,4.09-1.74V51.75c-8.77,0-13.49,3.8-15.12,5.43-2.56,2.56-12.26,14.39-13.72,16.38-1.28,1.74-1.78,4.29,0,6a4.29,4.29,0,0,0,6,0l8-8,.12.12-8.05,8a4.47,4.47,0,0,1-6.27,0Z"/><path class="cls-1" d="M90.82,48.75H83.19a2.92,2.92,0,0,0-2.91,2.91v17a2.91,2.91,0,0,0,2.91,2.91h7.63Z"/><path class="cls-1" d="M12.33,38.72h-.09V21.5h.09a5.7,5.7,0,0,0,4-1.68l11.11-14a13.28,13.28,0,0,1,9.84-4H54a4.46,4.46,0,0,1,0,8.91H41.55c1.22,1.36,1.63,3.73-.14,6.13-1.46,2-11.17,13.84-13.74,16.41C26,34.9,21.23,38.72,12.33,38.72Zm.09-17V38.54c8.78,0,13.5-3.79,15.12-5.42,2.57-2.56,12.27-14.39,13.73-16.38,1.28-1.74,1.77-4.29,0-6.06a4.31,4.31,0,0,0-6.05,0l-8,8.05-.12-.12,8.05-8a4.47,4.47,0,0,1,6.27,0H54A4.28,4.28,0,0,0,54,2H37.33a13.1,13.1,0,0,0-9.71,4l-11.1,14A5.91,5.91,0,0,1,12.42,21.68Z"/><path class="cls-1" d="M1.8,41.54H9.42a2.9,2.9,0,0,0,2.91-2.9v-17a2.91,2.91,0,0,0-2.91-2.91H1.8Z"/></g></g></svg>